<svg width="46" height="46" viewBox="0 0 46 46" fill="none" xmlns="http://www.w3.org/2000/svg">
<g filter="url(#filter0_d_130_75)">
<path d="M37.9997 15.3693C37.9646 12.589 37.1133 9.87641 35.5462 7.55092C33.9791 5.22543 31.7614 3.38391 29.1543 2.24323C26.5471 1.10256 23.6592 0.710229 20.8305 1.11246C18.0018 1.51468 15.3501 2.69471 13.1879 4.51358C11.0256 6.33244 9.44274 8.71438 8.62569 11.3789C7.80865 14.0434 7.79145 16.8795 8.57611 19.5532C9.36078 22.2269 10.9146 24.6268 13.0547 26.4704C15.1947 28.3139 17.8319 29.5243 20.6555 29.959V19.6185H16.9054V15.3693H20.6555V12.1413C20.5687 11.3908 20.6524 10.6308 20.9006 9.91511C21.1488 9.19942 21.5554 8.54543 22.0919 7.99931C22.6284 7.45319 23.2815 7.02825 24.0053 6.75448C24.7291 6.48071 25.5058 6.36478 26.2806 6.41489C27.4053 6.43042 28.5273 6.52796 29.637 6.70668V10.3541H27.7619C27.4386 10.3144 27.1102 10.346 26.8011 10.4463C26.492 10.5467 26.21 10.7133 25.976 10.9339C25.742 11.1545 25.5619 11.4234 25.4491 11.7208C25.3364 12.0182 25.2937 12.3364 25.3244 12.652V15.4058H29.487L28.812 19.655H25.3431V29.8678C28.8868 29.3226 32.1122 27.5602 34.4343 24.9002C36.7564 22.2401 38.0214 18.8587 37.9997 15.3693Z" fill="white"/>
</g>
<defs>
<filter id="filter0_d_130_75" x="0" y="0.958984" width="46" height="45" filterUnits="userSpaceOnUse" color-interpolation-filters="sRGB">
<feFlood flood-opacity="0" result="BackgroundImageFix"/>
<feColorMatrix in="SourceAlpha" type="matrix" values="0 0 0 0 0 0 0 0 0 0 0 0 0 0 0 0 0 0 127 0" result="hardAlpha"/>
<feOffset dy="8"/>
<feGaussianBlur stdDeviation="4"/>
<feComposite in2="hardAlpha" operator="out"/>
<feColorMatrix type="matrix" values="0 0 0 0 0 0 0 0 0 0 0 0 0 0 0 0 0 0 0.35 0"/>
<feBlend mode="normal" in2="BackgroundImageFix" result="effect1_dropShadow_130_75"/>
<feBlend mode="normal" in="SourceGraphic" in2="effect1_dropShadow_130_75" result="shape"/>
</filter>
</defs>
</svg>
