<svg width="47" height="46" viewBox="0 0 47 46" fill="none" xmlns="http://www.w3.org/2000/svg">
<g filter="url(#filter0_d_130_74)">
<path d="M23.5 8.00715C21.9259 8.00715 20.3872 8.4434 19.0784 9.26072C17.7696 10.078 16.7495 11.2397 16.1471 12.5989C15.5448 13.9581 15.3872 15.4536 15.6943 16.8965C16.0013 18.3394 16.7593 19.6647 17.8724 20.705C18.9854 21.7452 20.4035 22.4537 21.9473 22.7407C23.4912 23.0277 25.0914 22.8804 26.5457 22.3174C27.9999 21.7544 29.2429 20.801 30.1174 19.5778C30.9919 18.3546 31.4587 16.9165 31.4587 15.4454C31.4612 14.4679 31.2571 13.4996 30.8581 12.5961C30.459 11.6925 29.8729 10.8716 29.1333 10.1804C28.3938 9.48924 27.5154 8.94144 26.5487 8.56848C25.5819 8.19552 24.5459 8.00476 23.5 8.00715ZM23.5 20.2893C22.4749 20.2893 21.4729 20.0052 20.6206 19.4729C19.7683 18.9407 19.104 18.1842 18.7117 17.2991C18.3194 16.414 18.2168 15.44 18.4167 14.5004C18.6167 13.5607 19.1103 12.6976 19.8352 12.0202C20.56 11.3428 21.4835 10.8814 22.4889 10.6945C23.4943 10.5076 24.5363 10.6036 25.4834 10.9702C26.4304 11.3368 27.2399 11.9577 27.8094 12.7542C28.3789 13.5508 28.6828 14.4873 28.6828 15.4454C28.6828 16.7301 28.1368 17.9621 27.1648 18.8705C26.1928 19.779 24.8746 20.2893 23.5 20.2893ZM33.6522 7.69874C33.6522 8.05756 33.5383 8.40831 33.325 8.70666C33.1117 9.005 32.8086 9.23753 32.4539 9.37484C32.0992 9.51216 31.7089 9.54808 31.3323 9.47808C30.9558 9.40808 30.6099 9.2353 30.3384 8.98157C30.067 8.72785 29.8821 8.40459 29.8072 8.05267C29.7323 7.70075 29.7707 7.33598 29.9176 7.00448C30.0646 6.67297 30.3134 6.38963 30.6326 6.19029C30.9518 5.99094 31.3271 5.88454 31.711 5.88454C32.2258 5.88454 32.7196 6.07568 33.0836 6.41591C33.4476 6.75614 33.6522 7.21758 33.6522 7.69874ZM38.9126 9.51294C38.9712 7.25723 38.0708 5.07178 36.4086 3.43537C35.5463 2.65633 34.5281 2.04383 33.4123 1.63291C32.2964 1.222 31.1049 1.02073 29.9058 1.04062C27.3823 0.931771 19.6177 0.931771 17.0942 1.04062C14.6818 0.991802 12.3458 1.83252 10.5914 3.38094C8.92921 5.01735 8.02876 7.2028 8.08735 9.45851C7.97088 11.817 7.97088 19.0738 8.08735 21.4322C8.02876 23.688 8.92921 25.8734 10.5914 27.5098C12.3458 29.0582 14.6818 29.899 17.0942 29.8501C19.6565 29.9953 27.3435 29.9953 29.9058 29.8501C32.3193 29.9049 34.6577 29.0633 36.4086 27.5098C38.0708 25.8734 38.9712 23.688 38.9126 21.4322C39.0291 19.0738 39.0291 11.817 38.9126 9.45851V9.51294ZM35.6127 24.0265C35.3492 24.6505 34.9513 25.2172 34.4437 25.6916C33.9362 26.166 33.3298 26.5378 32.6622 26.7841C29.6487 27.3535 26.5681 27.5487 23.5 27.3647C20.4384 27.5471 17.3643 27.3519 14.3572 26.7841C13.6896 26.5378 13.0832 26.166 12.5757 25.6916C12.0681 25.2172 11.6703 24.6505 11.4067 24.0265C10.5914 22.1035 10.7661 17.568 10.7661 15.4635C10.7661 13.359 10.5914 8.8054 11.4067 6.90049C11.6628 6.27036 12.0579 5.69761 12.5662 5.21941C13.0745 4.74121 13.6847 4.36826 14.3572 4.12477C17.3643 3.55696 20.4384 3.36177 23.5 3.54422C26.5681 3.36016 29.6487 3.55536 32.6622 4.12477C33.3298 4.37108 33.9362 4.74295 34.4437 5.2173C34.9513 5.69165 35.3492 6.25838 35.6127 6.88235C36.428 8.8054 36.2339 13.3409 36.2339 15.4454C36.2339 17.5499 36.428 22.1035 35.6127 24.0084V24.0265Z" fill="white"/>
</g>
<defs>
<filter id="filter0_d_130_74" x="0" y="0.958984" width="47" height="45" filterUnits="userSpaceOnUse" color-interpolation-filters="sRGB">
<feFlood flood-opacity="0" result="BackgroundImageFix"/>
<feColorMatrix in="SourceAlpha" type="matrix" values="0 0 0 0 0 0 0 0 0 0 0 0 0 0 0 0 0 0 127 0" result="hardAlpha"/>
<feOffset dy="8"/>
<feGaussianBlur stdDeviation="4"/>
<feComposite in2="hardAlpha" operator="out"/>
<feColorMatrix type="matrix" values="0 0 0 0 0 0 0 0 0 0 0 0 0 0 0 0 0 0 0.35 0"/>
<feBlend mode="normal" in2="BackgroundImageFix" result="effect1_dropShadow_130_74"/>
<feBlend mode="normal" in="SourceGraphic" in2="effect1_dropShadow_130_74" result="shape"/>
</filter>
</defs>
</svg>
