<svg width="47" height="38" viewBox="0 0 47 38" fill="none" xmlns="http://www.w3.org/2000/svg">
<g filter="url(#filter0_d_130_76)">
<path d="M38.3598 18.663C38.1876 19.3034 37.8421 19.8883 37.3587 20.3578C36.8754 20.8273 36.2715 21.1646 35.6087 21.3353C31.5907 21.7947 27.5459 22.0007 23.5 21.952C19.4541 22.0007 15.4093 21.7947 11.3913 21.3353C10.7285 21.1646 10.1246 20.8273 9.64126 20.3578C9.15791 19.8883 8.81244 19.3034 8.64015 18.663C8.20032 16.2823 7.98632 13.8678 8.00081 11.4496C7.98504 9.01901 8.19904 6.59206 8.64015 4.19891C8.82137 3.5688 9.1708 2.99557 9.65356 2.53648C10.1363 2.07739 10.7355 1.7485 11.3913 1.58267C15.4093 1.12324 19.4541 0.917236 23.5 0.965981C27.5459 0.917236 31.5907 1.12324 35.6087 1.58267C36.2645 1.7485 36.8637 2.07739 37.3464 2.53648C37.8292 2.99557 38.1786 3.5688 38.3598 4.19891C38.801 6.59206 39.015 9.01901 38.9992 11.4496C39.0137 13.8678 38.7997 16.2823 38.3598 18.663ZM20.3227 6.98334V15.8786L28.4404 11.4496L20.3227 7.00203V6.98334Z" fill="white"/>
</g>
<defs>
<filter id="filter0_d_130_76" x="0" y="0.958984" width="47" height="37" filterUnits="userSpaceOnUse" color-interpolation-filters="sRGB">
<feFlood flood-opacity="0" result="BackgroundImageFix"/>
<feColorMatrix in="SourceAlpha" type="matrix" values="0 0 0 0 0 0 0 0 0 0 0 0 0 0 0 0 0 0 127 0" result="hardAlpha"/>
<feOffset dy="8"/>
<feGaussianBlur stdDeviation="4"/>
<feComposite in2="hardAlpha" operator="out"/>
<feColorMatrix type="matrix" values="0 0 0 0 0 0 0 0 0 0 0 0 0 0 0 0 0 0 0.35 0"/>
<feBlend mode="normal" in2="BackgroundImageFix" result="effect1_dropShadow_130_76"/>
<feBlend mode="normal" in="SourceGraphic" in2="effect1_dropShadow_130_76" result="shape"/>
</filter>
</defs>
</svg>
