<svg width="61" height="46" viewBox="0 0 61 46" fill="none" xmlns="http://www.w3.org/2000/svg">
<path d="M27.6294 39.8696C28.9062 39.8696 29.9116 40.8646 29.9116 42.1851C29.9116 43.5055 28.9062 44.4995 27.6294 44.4995C26.3528 44.4993 25.3482 43.5053 25.3481 42.1851C25.3481 40.8647 26.3528 39.8698 27.6294 39.8696ZM50.3198 39.8696C51.5965 39.8698 52.6011 40.8647 52.6011 42.1851C52.601 43.5054 51.5965 44.4993 50.3198 44.4995C49.043 44.4995 48.0377 43.5055 48.0376 42.1851C48.0376 40.8646 49.043 39.8696 50.3198 39.8696ZM4.65283 1.71338L4.72021 1.71924H19.8882L20.0435 1.72705C20.406 1.75885 20.7572 1.87879 21.0669 2.07764C21.4207 2.30483 21.7078 2.62676 21.894 3.01025L21.9136 3.05127L24.7876 8.54443L25.2095 9.34912H59.4634L53.354 28.3735L53.3501 28.3843L53.3472 28.395C53.3123 28.5087 53.1715 28.7396 52.8823 28.9556C52.5935 29.1712 52.3336 29.2397 52.2104 29.2397H25.7388C25.6646 29.2396 25.4019 29.1808 25.0835 28.9478C24.8462 28.774 24.7091 28.5995 24.644 28.4858L24.6021 28.395L24.5981 28.3813L24.5942 28.3687L21.4927 18.8306L18.3921 9.29346L18.3784 9.25244L17.6978 7.34521L17.3423 6.34912H4.81982L4.70068 6.36865C4.09491 6.46631 3.47404 6.31769 2.97412 5.95264C2.47351 5.58691 2.13344 5.03247 2.03467 4.40967C1.93588 3.78679 2.08709 3.15111 2.45166 2.64307C2.80324 2.15325 3.32492 1.82296 3.90576 1.7124C3.94289 1.71281 3.98001 1.71407 4.01709 1.71631L4.13135 1.72314L4.24463 1.71338C4.3804 1.70101 4.51707 1.701 4.65283 1.71338Z" stroke="#F3B86D" stroke-width="3"/>
</svg>
