<svg width="78" height="59" viewBox="0 0 78 59" fill="none" xmlns="http://www.w3.org/2000/svg">
<path d="M27.6294 52.8696C28.9062 52.8696 29.9116 53.8646 29.9116 55.1851C29.9116 56.5055 28.9062 57.4995 27.6294 57.4995C26.3528 57.4993 25.3482 56.5053 25.3481 55.1851C25.3481 53.8647 26.3528 52.8698 27.6294 52.8696ZM50.3198 52.8696C51.5965 52.8698 52.6011 53.8647 52.6011 55.1851C52.601 56.5054 51.5965 57.4993 50.3198 57.4995C49.043 57.4995 48.0377 56.5055 48.0376 55.1851C48.0376 53.8646 49.043 52.8696 50.3198 52.8696ZM4.65283 14.7134L4.72021 14.7192H19.8882L20.0435 14.7271C20.406 14.7588 20.7572 14.8788 21.0669 15.0776C21.4207 15.3048 21.7078 15.6268 21.894 16.0103L21.9136 16.0513L24.7876 21.5444L25.2095 22.3491H59.4634L53.354 41.3735L53.3501 41.3843L53.3472 41.395C53.3123 41.5087 53.1715 41.7396 52.8823 41.9556C52.5935 42.1712 52.3336 42.2397 52.2104 42.2397H25.7388C25.6646 42.2396 25.4019 42.1808 25.0835 41.9478C24.8462 41.774 24.7091 41.5995 24.644 41.4858L24.6021 41.395L24.5981 41.3813L24.5942 41.3687L21.4927 31.8306L18.3921 22.2935L18.3784 22.2524L17.6978 20.3452L17.3423 19.3491H4.81982L4.70068 19.3687C4.09491 19.4663 3.47404 19.3177 2.97412 18.9526C2.47351 18.5869 2.13344 18.0325 2.03467 17.4097C1.93588 16.7868 2.08709 16.1511 2.45166 15.6431C2.80324 15.1533 3.32492 14.823 3.90576 14.7124C3.94289 14.7128 3.98001 14.7141 4.01709 14.7163L4.13135 14.7231L4.24463 14.7134C4.3804 14.701 4.51707 14.701 4.65283 14.7134Z" stroke="#F3B86D" stroke-width="3"/>
<ellipse cx="62.6058" cy="15.5" rx="14.6058" ry="15.5" fill="#EE5D02"/>
</svg>
